<svg height="512" width="512" xmlns="http://www.w3.org/2000/svg"><circle cx="256" cy="256" fill="#ffce00" r="256"/><path d="M512 256c0-6.841-.269-13.62-.795-20.325l-87.878-87.878-14.845 21.445-70.304-70.304L95.665 256l45.943 45.943-23.766 78.269 79.36 79.36-18.187 17.718 30.501 30.501a257.478 257.478 0 0046.484 4.21C397.385 512 512 397.385 512 256z" fill="#ffa300"/><path d="M394.158 380.211H117.842V213.266h276.315v166.945zm-246.316-30h216.315V243.266H147.842z" fill="#fe6a16"/><path d="M394.158 213.266H255.986v30h108.172v106.945H255.986v30h138.172z" fill="#f24500"/><path d="M360.364 278.619c44.494 0 80.564-36.07 80.564-80.564s-36.07-80.564-80.564-80.564c-4.082 0-8.092.31-12.011.895-14.364-36.982-50.295-63.2-92.353-63.2s-77.99 26.218-92.353 63.2a81.163 81.163 0 00-12.011-.895c-44.494 0-80.564 36.07-80.564 80.564s36.07 80.564 80.564 80.564z" fill="#fff"/><path d="M360.364 117.491c-4.082 0-8.092.31-12.011.896-14.364-36.982-50.295-63.2-92.353-63.2h-.014v223.432h104.378c44.494 0 80.564-36.07 80.564-80.564s-36.07-80.564-80.564-80.564z" fill="#e9edf5"/><path d="M179.016 429.389h153.969v47.9H179.016z" fill="#555a66"/><path d="M255.986 429.389h76.999v47.9h-76.999z" fill="#333940"/><path d="M179.015 385.172h153.969v47.9H179.015z" fill="#636978"/><path d="M255.986 385.172h76.999v47.9h-76.999z" fill="#414952"/><path d="M179.015 340.955h153.969v47.9H179.015z" fill="#555a66"/><path d="M255.986 340.955h76.999v47.9h-76.999z" fill="#333940"/><path d="M179.015 296.738h153.969v47.9H179.015z" fill="#636978"/><path d="M255.986 296.738h76.999v47.9h-76.999z" fill="#414952"/><circle cx="199.45" cy="321.527" fill="#2fddd0" r="9.979"/><circle cx="229.863" cy="321.527" fill="#2fddd0" r="9.979"/><circle cx="199.45" cy="411.342" fill="#2fddd0" r="9.979"/><circle cx="229.863" cy="411.342" fill="#2fddd0" r="9.979"/><path d="M347.419 183.488v-23.674l-12.36-3.004c-6.299-1.531-11.427-6.023-13.899-12.014a10.237 10.237 0 00-.077-.185c-2.496-6.001-2.067-12.819 1.314-18.37l6.615-10.862-16.74-16.74-10.862 6.615c-5.551 3.381-12.369 3.81-18.37 1.314l-.185-.077c-5.992-2.472-10.484-7.6-12.015-13.899l-3.004-12.36h-23.674l-3.004 12.36c-1.531 6.299-6.023 11.427-12.015 13.899l-.185.077c-6.001 2.496-12.819 2.067-18.37-1.314l-10.862-6.615-16.74 16.74 6.615 10.862c3.381 5.551 3.81 12.369 1.314 18.37l-.077.185c-2.472 5.992-7.6 10.484-13.899 12.015l-12.36 3.004v23.674l12.36 3.004c6.299 1.531 11.426 6.023 13.899 12.014l.077.185c2.496 6.001 2.067 12.819-1.314 18.37l-6.615 10.862 16.74 16.74 10.862-6.615c5.551-3.381 12.369-3.81 18.37-1.314l.185.077c5.992 2.472 10.484 7.6 12.015 13.899l3.004 12.36h23.674l3.004-12.36c1.531-6.299 6.023-11.427 12.014-13.899l.185-.077c6.001-2.496 12.819-2.067 18.37 1.314l10.862 6.615 16.74-16.74-6.615-10.862c-3.381-5.551-3.81-12.369-1.314-18.37l.077-.185c2.472-5.992 7.6-10.484 13.899-12.015zM256 208.285c-20.232 0-36.634-16.402-36.634-36.634s16.401-36.634 36.634-36.634 36.634 16.402 36.634 36.634c0 20.233-16.402 36.634-36.634 36.634z" fill="#636978"/><path d="M335.059 156.811c-6.299-1.531-11.426-6.022-13.899-12.014l-.077-.185c-2.496-6.001-2.067-12.819 1.314-18.37l6.615-10.862-16.74-16.74-10.862 6.615c-5.551 3.381-12.369 3.811-18.37 1.314l-.185-.077c-5.992-2.472-10.484-7.6-12.015-13.899l-3.004-12.36h-11.851v54.785h.014c20.232 0 36.634 16.401 36.634 36.634S276.232 208.285 256 208.285h-.014v54.785h11.851l3.004-12.36c1.531-6.299 6.023-11.426 12.015-13.899l.185-.077c6.001-2.496 12.819-2.067 18.37 1.314l10.862 6.615 16.74-16.74-6.615-10.862c-3.381-5.551-3.81-12.369-1.314-18.37l.077-.186c2.472-5.992 7.6-10.484 13.899-12.014l12.36-3.003v-23.674z" fill="#414952"/></svg>