<svg xmlns="http://www.w3.org/2000/svg" viewBox="0 0 512 512"><circle cx="256" cy="256" r="256" fill="#fdc00f"/><path d="M370.514 112.553c-.466-.502-.896-1.034-1.382-1.521a49.734 49.734 0 00-3.615-3.267c-.579-.476-1.193-.891-1.787-1.336-.691-.517-1.372-1.055-2.094-1.536-.707-.471-1.439-.881-2.161-1.311-.66-.394-1.306-.809-1.981-1.172-.742-.394-1.5-.732-2.258-1.085-.701-.333-1.393-.681-2.115-.983-.742-.307-1.495-.553-2.248-.824-.768-.276-1.526-.573-2.314-.809-.748-.225-1.505-.394-2.263-.584-.809-.205-1.603-.43-2.427-.594-.87-.174-1.751-.276-2.632-.399-.717-.102-1.418-.241-2.14-.307a49.228 49.228 0 00-24.094 3.635 49.455 49.455 0 00-18.965 14.198c-.471.568-.876 1.172-1.316 1.761l-.804 1.091c-.333-.353-23.05-23.148-23.532-23.629l-.005-.005a49.347 49.347 0 00-3.61-3.261c-.579-.476-1.193-.891-1.787-1.336-.691-.517-1.367-1.055-2.089-1.536-.712-.476-1.454-.891-2.181-1.326-.65-.389-1.29-.799-1.961-1.157-.742-.399-1.505-.737-2.268-1.091-.701-.333-1.393-.681-2.109-.978-.737-.307-1.49-.553-2.237-.819-.773-.276-1.531-.573-2.319-.814-.748-.225-1.505-.389-2.258-.579-.809-.205-1.608-.43-2.432-.594-.87-.174-1.751-.276-2.632-.399-.717-.102-1.418-.241-2.14-.307a49.944 49.944 0 00-4.874-.246c-13.635 0-25.979 5.524-34.913 14.459a49.879 49.879 0 00-3.272 3.62c-.471.573-.886 1.183-1.326 1.772-.522.696-1.065 1.382-1.546 2.104-.471.707-.881 1.439-1.311 2.161-.394.66-.809 1.306-1.172 1.981-.394.737-.727 1.495-1.08 2.243-.333.712-.691 1.408-.988 2.135-.302.732-.548 1.475-.809 2.217-.282.778-.579 1.546-.819 2.345-.22.737-.384 1.485-.573 2.227-.205.819-.435 1.623-.599 2.458-.169.86-.271 1.725-.394 2.586-.102.727-.241 1.444-.317 2.186a49.842 49.842 0 00-.246 4.869v145.951c0 13.635 5.524 25.979 14.459 34.913l.067.061 1.372 1.239c.466.502 33.208 33.26 33.572 33.597.097 2.493.348 4.951.809 7.337l-.43-.389c-.461-.502-31.908-32.046-32.394-32.532a51.067 51.067 0 00-3.62-3.272c-.579-.476-1.183-.886-1.777-1.326-.696-.522-1.377-1.06-2.099-1.546-.707-.471-1.439-.881-2.161-1.311-.66-.394-1.306-.809-1.981-1.172-.737-.394-1.5-.732-2.253-1.085-.707-.333-1.398-.686-2.125-.983-.737-.307-1.49-.553-2.237-.819-.773-.276-1.531-.573-2.319-.814-.748-.225-1.505-.389-2.258-.579-.809-.205-1.608-.43-2.432-.594-.87-.174-1.751-.276-2.632-.399-.717-.102-1.418-.241-2.14-.307a49.944 49.944 0 00-4.874-.246 49.162 49.162 0 00-31.406 11.274 48.957 48.957 0 00-3.507 3.185 49.879 49.879 0 00-3.272 3.62c-.476.579-.886 1.183-1.326 1.777-.522.696-1.06 1.377-1.546 2.099-.471.707-.881 1.439-1.311 2.161-.394.66-.809 1.306-1.172 1.981-.394.737-.727 1.495-1.08 2.243-.333.712-.691 1.408-.988 2.135-.302.732-.548 1.48-.814 2.227-.276.778-.579 1.541-.814 2.335-.225.748-.389 1.505-.579 2.258-.205.809-.43 1.608-.594 2.432-.174.87-.276 1.751-.399 2.632-.102.717-.241 1.418-.307 2.14a49.944 49.944 0 00-.246 4.874v18.243c0 13.635 5.524 25.979 14.459 34.913l.067.061c.435.435 103.741 103.741 104.207 104.212 71.378 4.997 144.445-19.712 199.009-74.276 50.509-50.509 75.459-116.874 74.931-183.076l-.466-.42c-.49-.53-140.522-140.557-140.998-140.997z" fill="#eb9900"/><path d="M380.068 255.406c-7.26-18.227-25.032-31.13-45.85-31.13s-38.589 12.902-45.85 31.13h-3.523v18.243c0 13.635 5.524 25.979 14.459 34.913 8.934 8.934 21.279 14.459 34.913 14.459 27.269 0 49.372-22.103 49.372-49.372v-18.243h-3.521z" fill="#a4b830"/><path d="M317.553 290.319H299.31v18.243c9.641 9.641 22.277 14.459 34.913 14.459v-49.372l-16.67 16.67zm66.042-16.67v-18.243h-3.523c-2.499-6.267-6.257-11.884-10.936-16.584v34.826h-34.913l34.913 34.913c9.636-9.64 14.459-22.276 14.459-34.912z" fill="#d7eced"/><path d="M369.132 290.319h-18.243l-16.671-16.671v49.372c13.635 0 25.979-5.524 34.913-14.459v-18.242z" fill="#a4b830"/><circle cx="334.234" cy="255.406" r="49.372" fill="#2d5872"/><path d="M334.223 206.034v49.372l34.913-34.913c-9.645-9.641-22.282-14.459-34.913-14.459z" fill="#fff"/><path d="M299.31 220.493l34.913 34.913v-49.372c-13.634 0-25.979 5.524-34.913 14.459z" fill="#c2d64a"/><path d="M284.846 255.406h49.372l-34.913-34.913c-9.636 9.641-14.459 22.277-14.459 34.913z" fill="#fff"/><path d="M299.31 290.319l34.913-34.913h-49.372c-.005 13.635 5.525 25.979 14.459 34.913z" fill="#c2d64a"/><path d="M334.223 304.778v-49.372l-34.913 34.913c9.641 9.641 22.277 14.459 34.913 14.459z" fill="#fff"/><path d="M369.132 290.319l-34.913-34.913v49.372c13.634 0 25.978-5.524 34.913-14.459z" fill="#c2d64a"/><path d="M383.595 255.406h-49.372l34.913 34.913c9.636-9.641 14.459-22.277 14.459-34.913z" fill="#fff"/><path d="M369.132 220.493l-34.913 34.913h49.372c.004-13.634-5.525-25.979-14.459-34.913z" fill="#c2d64a"/><circle cx="334.234" cy="255.406" r="34.913" fill="#c2d64a"/><circle cx="334.234" cy="255.406" r="24.689" fill="#fff"/><path d="M380.068 237.164c-7.26-18.227-25.032-31.13-45.85-31.13s-38.589 12.902-45.85 31.13h-3.523v18.243c0 13.635 5.524 25.979 14.459 34.913 8.934 8.934 21.279 14.459 34.913 14.459 27.269 0 49.372-22.103 49.372-49.372v-18.243h-3.521z" fill="#a4b830"/><path d="M317.553 272.077H299.31v18.243c9.641 9.641 22.277 14.459 34.913 14.459v-49.372l-16.67 16.67zm66.042-16.671v-18.243h-3.523c-2.499-6.267-6.257-11.884-10.936-16.584v34.826h-34.913l34.913 34.913c9.636-9.64 14.459-22.276 14.459-34.912z" fill="#d7eced"/><path d="M369.132 272.077h-18.243l-16.671-16.671v49.372c13.635 0 25.979-5.524 34.913-14.459v-18.242z" fill="#a4b830"/><circle cx="334.234" cy="237.158" r="49.372" fill="#2d5872"/><path d="M334.223 187.791v49.372l34.913-34.913c-9.645-9.641-22.282-14.459-34.913-14.459z" fill="#fff"/><path d="M299.31 202.25l34.913 34.913v-49.372c-13.634 0-25.979 5.525-34.913 14.459z" fill="#c2d64a"/><path d="M284.846 237.164h49.372l-34.913-34.913c-9.636 9.64-14.459 22.276-14.459 34.913z" fill="#fff"/><path d="M299.31 272.077l34.913-34.913h-49.372c-.005 13.634 5.525 25.978 14.459 34.913z" fill="#c2d64a"/><path d="M334.223 286.536v-49.372l-34.913 34.913c9.641 9.641 22.277 14.459 34.913 14.459z" fill="#fff"/><path d="M369.132 272.077l-34.913-34.913v49.372c13.634 0 25.978-5.525 34.913-14.459z" fill="#c2d64a"/><path d="M383.595 237.164h-49.372l34.913 34.913c9.636-9.641 14.459-22.277 14.459-34.913z" fill="#fff"/><path d="M369.132 202.25l-34.913 34.913h49.372c.004-13.634-5.525-25.978-14.459-34.913z" fill="#c2d64a"/><circle cx="334.234" cy="237.158" r="34.913" fill="#c2d64a"/><circle cx="334.234" cy="237.158" r="24.689" fill="#fff"/><path d="M380.068 218.921c-7.26-18.227-25.032-31.13-45.85-31.13s-38.589 12.902-45.85 31.13h-3.523v18.243c0 13.635 5.524 25.979 14.459 34.913 8.934 8.934 21.279 14.459 34.913 14.459 27.269 0 49.372-22.103 49.372-49.372v-18.243h-3.521z" fill="#a4b830"/><path d="M317.553 253.834H299.31v18.243c9.641 9.641 22.277 14.459 34.913 14.459v-49.372l-16.67 16.67zm66.042-16.67v-18.243h-3.523c-2.499-6.267-6.257-11.884-10.936-16.584v34.826h-34.913l34.913 34.913c9.636-9.64 14.459-22.276 14.459-34.912z" fill="#d7eced"/><path d="M369.132 253.829h-18.243l-16.671-16.671v49.372c13.635 0 25.979-5.524 34.913-14.459v-18.242z" fill="#a4b830"/><circle cx="334.234" cy="218.921" r="49.372" fill="#2d5872"/><path d="M334.223 169.549v49.372l34.913-34.913c-9.645-9.641-22.282-14.459-34.913-14.459z" fill="#fff"/><path d="M299.31 184.008l34.913 34.913v-49.372c-13.634 0-25.979 5.524-34.913 14.459z" fill="#c2d64a"/><path d="M284.846 218.921h49.372l-34.913-34.913c-9.636 9.641-14.459 22.277-14.459 34.913z" fill="#fff"/><path d="M299.31 253.834l34.913-34.913h-49.372c-.005 13.635 5.525 25.974 14.459 34.913z" fill="#c2d64a"/><path d="M334.223 268.293v-49.372l-34.913 34.913c9.641 9.636 22.277 14.459 34.913 14.459z" fill="#fff"/><path d="M369.132 253.834l-34.913-34.913v49.372c13.634 0 25.978-5.524 34.913-14.459z" fill="#c2d64a"/><path d="M383.595 218.921h-49.372l34.913 34.913c9.636-9.641 14.459-22.277 14.459-34.913z" fill="#fff"/><path d="M369.132 184.008l-34.913 34.913h49.372c.004-13.635-5.525-25.979-14.459-34.913z" fill="#c2d64a"/><circle cx="334.234" cy="218.921" r="34.913" fill="#c2d64a"/><circle cx="334.234" cy="218.921" r="24.689" fill="#fff"/><path d="M380.068 200.678c-7.26-18.227-25.032-31.13-45.85-31.13s-38.589 12.902-45.85 31.13h-3.523v18.243c0 13.635 5.524 25.979 14.459 34.913 8.934 8.934 21.279 14.459 34.913 14.459 27.269 0 49.372-22.103 49.372-49.372v-18.243h-3.521z" fill="#a4b830"/><path d="M317.553 235.587H299.31v18.243c9.641 9.641 22.277 14.459 34.913 14.459v-49.372l-16.67 16.67zm66.042-16.666v-18.243h-3.523c-2.499-6.267-6.257-11.884-10.936-16.584v34.826h-34.913l34.913 34.913c9.636-9.645 14.459-22.276 14.459-34.912z" fill="#d7eced"/><path d="M369.132 235.587h-18.243l-16.671-16.671v49.372c13.635 0 25.979-5.524 34.913-14.459v-18.242z" fill="#a4b830"/><circle cx="334.234" cy="200.704" r="49.372" fill="#2d5872"/><path d="M334.223 151.301v49.372l34.913-34.913c-9.645-9.636-22.282-14.459-34.913-14.459z" fill="#fff"/><path d="M299.31 165.765l34.913 34.913v-49.372c-13.634-.005-25.979 5.525-34.913 14.459z" fill="#c2d64a"/><path d="M284.846 200.678h49.372l-34.913-34.913c-9.636 9.641-14.459 22.277-14.459 34.913z" fill="#fff"/><path d="M299.31 235.587l34.913-34.913h-49.372c-.005 13.639 5.525 25.978 14.459 34.913z" fill="#c2d64a"/><path d="M334.223 250.051v-49.372l-34.913 34.913c9.641 9.636 22.277 14.459 34.913 14.459z" fill="#fff"/><path d="M369.132 235.587l-34.913-34.913v49.372c13.634.005 25.978-5.525 34.913-14.459z" fill="#c2d64a"/><path d="M383.595 200.678h-49.372l34.913 34.913c9.636-9.645 14.459-22.282 14.459-34.913z" fill="#fff"/><path d="M369.132 165.765l-34.913 34.913h49.372c.004-13.634-5.525-25.978-14.459-34.913z" fill="#c2d64a"/><circle cx="334.234" cy="200.704" r="34.913" fill="#c2d64a"/><circle cx="334.234" cy="200.704" r="24.689" fill="#fff"/><path d="M380.068 182.431c-7.26-18.227-25.032-31.13-45.85-31.13s-38.589 12.902-45.85 31.13h-3.523v18.243c0 13.635 5.524 25.979 14.459 34.913 8.934 8.934 21.279 14.459 34.913 14.459 27.269 0 49.372-22.103 49.372-49.372v-18.243h-3.521z" fill="#a4b830"/><path d="M317.553 217.344H299.31v18.243c9.641 9.641 22.277 14.459 34.913 14.459v-49.372l-16.67 16.67zm66.042-16.666v-18.243h-3.523c-2.499-6.267-6.257-11.884-10.936-16.584v34.826h-34.913l34.913 34.913c9.636-9.644 14.459-22.281 14.459-34.912z" fill="#d7eced"/><path d="M369.132 217.344h-18.243l-16.671-16.671v49.372c13.635 0 25.979-5.524 34.913-14.459v-18.242z" fill="#a4b830"/><circle cx="334.234" cy="182.431" r="49.372" fill="#2d5872"/><path d="M334.223 133.059v49.372l34.913-34.913c-9.645-9.636-22.282-14.459-34.913-14.459z" fill="#fff"/><path d="M299.31 147.523l34.913 34.913v-49.372c-13.634-.005-25.979 5.524-34.913 14.459z" fill="#c2d64a"/><path d="M284.846 182.431h49.372l-34.913-34.913c-9.636 9.646-14.459 22.282-14.459 34.913z" fill="#fff"/><path d="M299.31 217.344l34.913-34.913h-49.372c-.005 13.634 5.525 25.979 14.459 34.913z" fill="#c2d64a"/><path d="M334.223 231.808v-49.372l-34.913 34.913c9.641 9.636 22.277 14.459 34.913 14.459z" fill="#fff"/><path d="M369.132 217.344l-34.913-34.913v49.372c13.634.005 25.978-5.525 34.913-14.459z" fill="#c2d64a"/><path d="M383.595 182.431h-49.372l34.913 34.913c9.636-9.641 14.459-22.277 14.459-34.913z" fill="#fff"/><path d="M369.132 147.523l-34.913 34.913h49.372c.004-13.635-5.525-25.979-14.459-34.913z" fill="#c2d64a"/><circle cx="334.234" cy="182.431" r="34.913" fill="#c2d64a"/><circle cx="334.234" cy="182.431" r="24.689" fill="#fff"/><path d="M380.068 164.188c-7.26-18.227-25.032-31.13-45.85-31.13s-38.589 12.902-45.85 31.13h-3.523v18.243c0 13.635 5.524 25.979 14.459 34.913 8.934 8.934 21.279 14.459 34.913 14.459 27.269 0 49.372-22.103 49.372-49.372v-18.243h-3.521z" fill="#a4b830"/><path d="M317.553 199.101H299.31v18.243c9.641 9.641 22.277 14.459 34.913 14.459v-49.372l-16.67 16.67zm66.042-16.67v-18.243h-3.523c-2.499-6.267-6.257-11.884-10.936-16.584v34.826h-34.913l34.913 34.913c9.636-9.64 14.459-22.276 14.459-34.912z" fill="#d7eced"/><path d="M369.132 199.101h-18.243l-16.671-16.671v49.372c13.635 0 25.979-5.524 34.913-14.459v-18.242z" fill="#a4b830"/><circle cx="334.234" cy="164.198" r="49.372" fill="#2d5872"/><path d="M334.223 114.816v49.372l34.913-34.913c-9.645-9.636-22.282-14.459-34.913-14.459z" fill="#fff"/><path d="M299.31 129.28l34.913 34.913v-49.372c-13.634-.005-25.979 5.519-34.913 14.459z" fill="#c2d64a"/><path d="M284.846 164.188h49.372l-34.913-34.913c-9.636 9.646-14.459 22.277-14.459 34.913z" fill="#fff"/><path d="M299.31 199.101l34.913-34.913h-49.372c-.005 13.635 5.525 25.979 14.459 34.913z" fill="#c2d64a"/><path d="M334.223 213.56v-49.372l-34.913 34.913c9.641 9.641 22.277 14.459 34.913 14.459z" fill="#fff"/><path d="M369.132 199.101l-34.913-34.913v49.372c13.634 0 25.978-5.524 34.913-14.459z" fill="#c2d64a"/><path d="M383.595 164.188h-49.372l34.913 34.913c9.636-9.641 14.459-22.277 14.459-34.913z" fill="#fff"/><path d="M369.132 129.28l-34.913 34.913h49.372c.004-13.639-5.525-25.979-14.459-34.913z" fill="#c2d64a"/><circle cx="334.234" cy="164.198" r="34.913" fill="#c2d64a"/><circle cx="334.234" cy="164.198" r="24.689" fill="#fff"/><path d="M380.068 145.946c-7.26-18.227-25.032-31.13-45.85-31.13s-38.589 12.902-45.85 31.13h-3.523v18.243c0 13.635 5.524 25.979 14.459 34.913 8.934 8.934 21.279 14.459 34.913 14.459 27.269 0 49.372-22.103 49.372-49.372v-18.243h-3.521z" fill="#a4b830"/><path d="M317.553 180.859H299.31v18.243c9.641 9.641 22.277 14.459 34.913 14.459v-49.372l-16.67 16.67zm66.042-16.671v-18.243h-3.523c-2.499-6.267-6.257-11.884-10.936-16.584v34.826h-34.913l34.913 34.913c9.636-9.64 14.459-22.276 14.459-34.912z" fill="#d7eced"/><path d="M369.132 180.859h-18.243l-16.671-16.671v49.372c13.635 0 25.979-5.524 34.913-14.459v-18.242z" fill="#a4b830"/><circle cx="334.234" cy="145.946" r="49.372" fill="#2d5872"/><path d="M334.223 96.573v49.372l34.913-34.913c-9.645-9.641-22.282-14.459-34.913-14.459z" fill="#fff"/><path d="M299.31 111.032l34.913 34.913V96.573c-13.634 0-25.979 5.525-34.913 14.459z" fill="#c2d64a"/><path d="M284.846 145.946h49.372l-34.913-34.913c-9.636 9.64-14.459 22.276-14.459 34.913z" fill="#fff"/><path d="M299.31 180.859l34.913-34.913h-49.372c-.005 13.634 5.525 25.978 14.459 34.913z" fill="#c2d64a"/><path d="M334.223 195.318v-49.372l-34.913 34.913c9.641 9.641 22.277 14.459 34.913 14.459z" fill="#fff"/><path d="M369.132 180.859l-34.913-34.913v49.372c13.634 0 25.978-5.525 34.913-14.459z" fill="#c2d64a"/><path d="M383.595 145.946h-49.372l34.913 34.913c9.636-9.641 14.459-22.277 14.459-34.913z" fill="#fff"/><path d="M369.132 111.032l-34.913 34.913h49.372c.004-13.634-5.525-25.978-14.459-34.913z" fill="#c2d64a"/><circle cx="334.234" cy="145.946" r="34.913" fill="#c2d64a"/><circle cx="334.234" cy="145.946" r="24.689" fill="#fff"/><path d="M281.324 256.492c-7.26-18.227-25.032-31.13-45.85-31.13s-38.589 12.902-45.85 31.13h-3.523v18.243c0 13.635 5.524 25.979 14.459 34.913 8.934 8.934 21.279 14.459 34.913 14.459 27.269 0 49.372-22.103 49.372-49.372v-18.243h-3.521z" fill="#e64500"/><path d="M218.808 291.405h-18.243v18.243c9.641 9.641 22.277 14.459 34.913 14.459v-49.372l-16.67 16.67z" fill="#d7eced"/><path d="M284.846 274.734v-18.243h-3.523c-2.499-6.267-6.257-11.884-10.936-16.584v34.826h-34.913l34.913 34.913c9.641-9.64 14.459-22.276 14.459-34.912z" fill="#d7eced"/><path d="M270.387 291.405h-18.243l-16.671-16.671v49.372c13.635 0 25.979-5.524 34.913-14.459v-18.242z" fill="#e64500"/><circle cx="235.474" cy="256.512" r="49.372" fill="#2d5872"/><path d="M235.474 207.119v49.372l34.913-34.913c-9.641-9.636-22.277-14.459-34.913-14.459z" fill="#fff"/><path d="M200.566 221.578l34.913 34.913v-49.372c-13.64 0-25.979 5.525-34.913 14.459z" fill="#fc611f"/><path d="M186.102 256.492h49.372l-34.913-34.913c-9.636 9.64-14.459 22.276-14.459 34.913z" fill="#fff"/><path d="M200.566 291.405l34.913-34.913h-49.372c-.005 13.634 5.519 25.978 14.459 34.913z" fill="#fc611f"/><path d="M235.474 305.864v-49.372l-34.913 34.913c9.641 9.641 22.277 14.459 34.913 14.459z" fill="#fff"/><path d="M270.387 291.405l-34.913-34.913v49.372c13.634 0 25.979-5.525 34.913-14.459z" fill="#fc611f"/><path d="M284.846 256.492h-49.372l34.913 34.913c9.641-9.641 14.459-22.277 14.459-34.913z" fill="#fff"/><path d="M270.387 221.578l-34.913 34.913h49.372c0-13.634-5.524-25.978-14.459-34.913z" fill="#fc611f"/><circle cx="235.474" cy="256.512" r="34.913" fill="#fc611f"/><circle cx="235.474" cy="256.512" r="24.689" fill="#fff"/><path d="M281.324 238.249c-7.26-18.227-25.032-31.13-45.85-31.13s-38.589 12.902-45.85 31.13h-3.523v18.243c0 13.635 5.524 25.979 14.459 34.913 8.934 8.934 21.279 14.459 34.913 14.459 27.269 0 49.372-22.103 49.372-49.372v-18.243h-3.521z" fill="#e64500"/><path d="M218.808 273.162h-18.243v18.243c9.641 9.641 22.277 14.459 34.913 14.459v-49.372l-16.67 16.67z" fill="#d7eced"/><path d="M284.846 256.492v-18.243h-3.523c-2.499-6.267-6.257-11.884-10.936-16.584v34.826h-34.913l34.913 34.913c9.641-9.64 14.459-22.276 14.459-34.912z" fill="#d7eced"/><path d="M270.387 273.162h-18.243l-16.671-16.671v49.372c13.635 0 25.979-5.524 34.913-14.459v-18.242z" fill="#e64500"/><circle cx="235.474" cy="238.249" r="49.372" fill="#2d5872"/><path d="M235.474 188.877v49.372l34.913-34.913c-9.641-9.641-22.277-14.459-34.913-14.459z" fill="#fff"/><path d="M200.566 203.336l34.913 34.913v-49.372c-13.64 0-25.979 5.524-34.913 14.459z" fill="#fc611f"/><path d="M186.102 238.249h49.372l-34.913-34.913c-9.636 9.641-14.459 22.277-14.459 34.913z" fill="#fff"/><path d="M200.566 273.162l34.913-34.913h-49.372c-.005 13.635 5.519 25.979 14.459 34.913z" fill="#fc611f"/><path d="M235.474 287.621v-49.372l-34.913 34.913c9.641 9.641 22.277 14.459 34.913 14.459z" fill="#fff"/><path d="M270.387 273.162l-34.913-34.913v49.372c13.634 0 25.979-5.524 34.913-14.459z" fill="#fc611f"/><path d="M284.846 238.249h-49.372l34.913 34.913c9.641-9.641 14.459-22.277 14.459-34.913z" fill="#fff"/><path d="M270.387 203.336l-34.913 34.913h49.372c0-13.635-5.524-25.979-14.459-34.913z" fill="#fc611f"/><circle cx="235.474" cy="238.249" r="34.913" fill="#fc611f"/><circle cx="235.474" cy="238.249" r="24.689" fill="#fff"/><path d="M281.324 220.006c-7.26-18.227-25.032-31.13-45.85-31.13s-38.589 12.902-45.85 31.13h-3.523v18.243c0 13.635 5.524 25.979 14.459 34.913 8.934 8.934 21.279 14.459 34.913 14.459 27.269 0 49.372-22.103 49.372-49.372v-18.243h-3.521z" fill="#e64500"/><path d="M218.808 254.915h-18.243v18.243c9.641 9.641 22.277 14.459 34.913 14.459v-49.372l-16.67 16.67z" fill="#d7eced"/><path d="M284.846 238.249v-18.243h-3.523c-2.499-6.267-6.257-11.884-10.936-16.584v34.826h-34.913l34.913 34.913c9.641-9.64 14.459-22.276 14.459-34.912z" fill="#d7eced"/><path d="M270.387 254.915h-18.243l-16.671-16.671v49.372c13.635 0 25.979-5.524 34.913-14.459v-18.242z" fill="#e64500"/><circle cx="235.474" cy="220.006" r="49.372" fill="#2d5872"/><path d="M235.474 170.634v49.372l34.913-34.913c-9.641-9.641-22.277-14.459-34.913-14.459z" fill="#fff"/><path d="M200.566 185.093l34.913 34.913v-49.372c-13.64 0-25.979 5.525-34.913 14.459z" fill="#fc611f"/><path d="M186.102 220.006h49.372l-34.913-34.913c-9.636 9.641-14.459 22.277-14.459 34.913z" fill="#fff"/><path d="M200.566 254.915l34.913-34.913h-49.372c-.005 13.639 5.519 25.978 14.459 34.913z" fill="#fc611f"/><path d="M235.474 269.379v-49.372l-34.913 34.913c9.641 9.636 22.277 14.459 34.913 14.459z" fill="#fff"/><path d="M270.387 254.915l-34.913-34.913v49.372c13.634.005 25.979-5.525 34.913-14.459z" fill="#fc611f"/><path d="M284.846 220.006h-49.372l34.913 34.913c9.641-9.645 14.459-22.276 14.459-34.913z" fill="#fff"/><path d="M270.387 185.093l-34.913 34.913h49.372c0-13.634-5.524-25.978-14.459-34.913z" fill="#fc611f"/><circle cx="235.474" cy="220.006" r="34.913" fill="#fc611f"/><circle cx="235.474" cy="220.006" r="24.689" fill="#fff"/><path d="M281.324 201.759c-7.26-18.227-25.032-31.13-45.85-31.13s-38.589 12.902-45.85 31.13h-3.523v18.243c0 13.635 5.524 25.979 14.459 34.913 8.934 8.934 21.279 14.459 34.913 14.459 27.269 0 49.372-22.103 49.372-49.372v-18.243h-3.521z" fill="#e64500"/><path d="M218.808 236.672h-18.243v18.243c9.641 9.641 22.277 14.459 34.913 14.459v-49.367l-16.67 16.665z" fill="#d7eced"/><path d="M284.846 220.006v-18.243h-3.523c-2.499-6.267-6.257-11.884-10.936-16.584v34.826h-34.913l34.913 34.913c9.641-9.644 14.459-22.281 14.459-34.912z" fill="#d7eced"/><path d="M270.387 236.672h-18.243l-16.671-16.671v49.372c13.635 0 25.979-5.524 34.913-14.459v-18.242z" fill="#e64500"/><circle cx="235.474" cy="201.779" r="49.372" fill="#2d5872"/><path d="M235.474 152.387v49.372l34.913-34.913c-9.641-9.636-22.277-14.459-34.913-14.459z" fill="#fff"/><path d="M200.566 166.851l34.913 34.913v-49.372c-13.64-.005-25.979 5.524-34.913 14.459z" fill="#fc611f"/><path d="M186.102 201.759h49.372l-34.913-34.913c-9.636 9.646-14.459 22.282-14.459 34.913z" fill="#fff"/><path d="M200.566 236.672l34.913-34.913h-49.372c-.005 13.634 5.519 25.979 14.459 34.913z" fill="#fc611f"/><path d="M235.474 251.136v-49.372l-34.913 34.913c9.641 9.636 22.277 14.459 34.913 14.459z" fill="#fff"/><path d="M270.387 236.672l-34.913-34.913v49.372c13.634.005 25.979-5.525 34.913-14.459z" fill="#fc611f"/><path d="M284.846 201.759h-49.372l34.913 34.913c9.641-9.641 14.459-22.277 14.459-34.913z" fill="#fff"/><path d="M270.387 166.851l-34.913 34.913h49.372c0-13.635-5.524-25.979-14.459-34.913z" fill="#fc611f"/><circle cx="235.474" cy="201.779" r="34.913" fill="#fc611f"/><circle cx="235.474" cy="201.779" r="24.689" fill="#fff"/><path d="M281.324 183.516c-7.26-18.227-25.032-31.13-45.85-31.13s-38.589 12.902-45.85 31.13h-3.523v18.243c0 13.635 5.524 25.979 14.459 34.913 8.934 8.934 21.279 14.459 34.913 14.459 27.269 0 49.372-22.103 49.372-49.372v-18.243h-3.521z" fill="#e64500"/><path d="M218.808 218.429h-18.243v18.243c9.641 9.641 22.277 14.459 34.913 14.459v-49.372l-16.67 16.67z" fill="#d7eced"/><path d="M284.846 201.759v-18.243h-3.523c-2.499-6.267-6.257-11.884-10.936-16.584v34.826h-34.913l34.913 34.913c9.641-9.64 14.459-22.276 14.459-34.912z" fill="#d7eced"/><path d="M270.387 218.429h-18.243l-16.671-16.671v49.372c13.635 0 25.979-5.524 34.913-14.459v-18.242z" fill="#e64500"/><circle cx="235.474" cy="183.516" r="49.372" fill="#2d5872"/><path d="M235.474 134.144v49.372l34.913-34.913c-9.641-9.636-22.277-14.459-34.913-14.459z" fill="#fff"/><path d="M200.566 148.603l34.913 34.913v-49.372c-13.64 0-25.979 5.524-34.913 14.459z" fill="#fc611f"/><path d="M186.102 183.516h49.372l-34.913-34.913c-9.636 9.641-14.459 22.277-14.459 34.913z" fill="#fff"/><path d="M200.566 218.429l34.913-34.913h-49.372c-.005 13.635 5.519 25.979 14.459 34.913z" fill="#fc611f"/><path d="M235.474 232.888v-49.372l-34.913 34.913c9.641 9.641 22.277 14.459 34.913 14.459z" fill="#fff"/><path d="M270.387 218.429l-34.913-34.913v49.372c13.634 0 25.979-5.524 34.913-14.459z" fill="#fc611f"/><path d="M284.846 183.516h-49.372l34.913 34.913c9.641-9.641 14.459-22.277 14.459-34.913z" fill="#fff"/><path d="M270.387 148.603l-34.913 34.913h49.372c0-13.634-5.524-25.979-14.459-34.913z" fill="#fc611f"/><circle cx="235.474" cy="183.516" r="34.913" fill="#fc611f"/><circle cx="235.474" cy="183.516" r="24.689" fill="#fff"/><path d="M281.324 165.274c-7.26-18.227-25.032-31.13-45.85-31.13s-38.589 12.902-45.85 31.13h-3.523v18.243c0 13.635 5.524 25.979 14.459 34.913 8.934 8.934 21.279 14.459 34.913 14.459 27.269 0 49.372-22.103 49.372-49.372v-18.243h-3.521z" fill="#e64500"/><path d="M218.808 200.187h-18.243v18.243c9.641 9.641 22.277 14.459 34.913 14.459v-49.372l-16.67 16.67z" fill="#d7eced"/><path d="M284.846 183.516v-18.243h-3.523c-2.499-6.267-6.257-11.884-10.936-16.584v34.826h-34.913l34.913 34.913c9.641-9.64 14.459-22.276 14.459-34.912z" fill="#d7eced"/><path d="M270.387 200.187h-18.243l-16.671-16.671v49.372c13.635 0 25.979-5.524 34.913-14.459v-18.242z" fill="#e64500"/><circle cx="235.474" cy="165.274" r="49.372" fill="#2d5872"/><path d="M235.474 115.901v49.372l34.913-34.913c-9.641-9.641-22.277-14.459-34.913-14.459z" fill="#fff"/><path d="M200.566 130.36l34.913 34.913v-49.372c-13.64 0-25.979 5.525-34.913 14.459z" fill="#fc611f"/><path d="M186.102 165.274h49.372l-34.913-34.913c-9.636 9.64-14.459 22.276-14.459 34.913z" fill="#fff"/><path d="M200.566 200.187l34.913-34.913h-49.372c-.005 13.634 5.519 25.978 14.459 34.913z" fill="#fc611f"/><path d="M235.474 214.646v-49.372l-34.913 34.913c9.641 9.641 22.277 14.459 34.913 14.459z" fill="#fff"/><path d="M270.387 200.187l-34.913-34.913v49.372c13.634 0 25.979-5.525 34.913-14.459z" fill="#fc611f"/><path d="M284.846 165.274h-49.372l34.913 34.913c9.641-9.641 14.459-22.277 14.459-34.913z" fill="#fff"/><path d="M270.387 130.36l-34.913 34.913h49.372c0-13.634-5.524-25.978-14.459-34.913z" fill="#fc611f"/><circle cx="235.474" cy="165.274" r="34.913" fill="#fc611f"/><circle cx="235.474" cy="165.274" r="24.689" fill="#fff"/><path d="M281.324 147.031c-7.26-18.227-25.032-31.13-45.85-31.13s-38.589 12.902-45.85 31.13h-3.523v18.243c0 13.635 5.524 25.979 14.459 34.913 8.934 8.934 21.279 14.459 34.913 14.459 27.269 0 49.372-22.103 49.372-49.372v-18.243h-3.521z" fill="#e64500"/><path d="M218.808 181.939h-18.243v18.243c9.641 9.641 22.277 14.459 34.913 14.459v-49.367l-16.67 16.665z" fill="#d7eced"/><path d="M284.846 165.274v-18.243h-3.523c-2.499-6.267-6.257-11.884-10.936-16.584v34.826h-34.913l34.913 34.913c9.641-9.64 14.459-22.276 14.459-34.912z" fill="#d7eced"/><path d="M270.387 181.939h-18.243l-16.671-16.671v49.372c13.635 0 25.979-5.524 34.913-14.459v-18.242z" fill="#e64500"/><circle cx="235.474" cy="147.031" r="49.372" fill="#2d5872"/><path d="M235.474 97.659v49.372l34.913-34.913c-9.641-9.641-22.277-14.459-34.913-14.459z" fill="#fff"/><path d="M200.566 112.118l34.913 34.913V97.659c-13.64 0-25.979 5.524-34.913 14.459z" fill="#fc611f"/><path d="M186.102 147.031h49.372l-34.913-34.913c-9.636 9.641-14.459 22.277-14.459 34.913z" fill="#fff"/><path d="M200.566 181.939l34.913-34.913h-49.372c-.005 13.64 5.519 25.979 14.459 34.913z" fill="#fc611f"/><path d="M235.474 196.403v-49.372l-34.913 34.913c9.641 9.636 22.277 14.459 34.913 14.459z" fill="#fff"/><path d="M270.387 181.939l-34.913-34.913v49.372c13.634.005 25.979-5.524 34.913-14.459z" fill="#fc611f"/><path d="M284.846 147.031h-49.372l34.913 34.913c9.641-9.646 14.459-22.277 14.459-34.913z" fill="#fff"/><path d="M270.387 112.118l-34.913 34.913h49.372c0-13.635-5.524-25.979-14.459-34.913z" fill="#fc611f"/><circle cx="235.474" cy="147.031" r="34.913" fill="#fc611f"/><circle cx="235.474" cy="147.031" r="24.689" fill="#fff"/><path d="M281.324 128.783c-7.26-18.227-25.032-31.13-45.85-31.13s-38.589 12.902-45.85 31.13h-3.523v18.243c0 13.635 5.524 25.979 14.459 34.913 8.934 8.934 21.279 14.459 34.913 14.459 27.269 0 49.372-22.103 49.372-49.372v-18.243h-3.521z" fill="#e64500"/><path d="M218.808 163.697h-18.243v18.243c9.641 9.641 22.277 14.459 34.913 14.459v-49.372l-16.67 16.67z" fill="#d7eced"/><path d="M284.846 147.031v-18.243h-3.523c-2.499-6.267-6.257-11.884-10.936-16.584v34.826h-34.913l34.913 34.913c9.641-9.645 14.459-22.281 14.459-34.912z" fill="#d7eced"/><path d="M270.387 163.697h-18.243l-16.671-16.671v49.372c13.635 0 25.979-5.524 34.913-14.459v-18.242z" fill="#e64500"/><circle cx="235.474" cy="128.768" r="49.372" fill="#2d5872"/><path d="M235.474 79.411v49.372l34.913-34.913c-9.641-9.636-22.277-14.459-34.913-14.459z" fill="#fff"/><path d="M200.566 93.875l34.913 34.913V79.416c-13.64-.005-25.979 5.525-34.913 14.459z" fill="#fc611f"/><path d="M186.102 128.783h49.372L200.561 93.87c-9.636 9.646-14.459 22.282-14.459 34.913z" fill="#fff"/><path d="M200.566 163.697l34.913-34.913h-49.372c-.005 13.634 5.519 25.978 14.459 34.913z" fill="#fc611f"/><path d="M235.474 178.161v-49.372l-34.913 34.913c9.641 9.636 22.277 14.459 34.913 14.459z" fill="#fff"/><path d="M270.387 163.697l-34.913-34.913v49.372c13.634.005 25.979-5.525 34.913-14.459z" fill="#fc611f"/><path d="M284.846 128.783h-49.372l34.913 34.913c9.641-9.64 14.459-22.276 14.459-34.913z" fill="#fff"/><path d="M270.387 93.875l-34.913 34.913h49.372c0-13.634-5.524-25.978-14.459-34.913z" fill="#fc611f"/><circle cx="235.474" cy="128.768" r="34.913" fill="#fc611f"/><circle cx="235.474" cy="128.768" r="24.689" fill="#fff"/><path d="M330.696 324.316c-7.26-18.227-25.032-31.13-45.85-31.13s-38.589 12.902-45.85 31.13h-3.523v18.243c0 13.635 5.524 25.979 14.459 34.913 8.934 8.934 21.279 14.459 34.913 14.459 27.269 0 49.372-22.103 49.372-49.372v-18.243h-3.521z" fill="#0f303f"/><path d="M268.18 359.229h-18.243v18.243c9.641 9.641 22.277 14.459 34.913 14.459v-49.372l-16.67 16.67z" fill="#d7eced"/><path d="M334.218 342.559v-18.243h-3.523c-2.499-6.267-6.257-11.884-10.936-16.584v34.826h-34.913l34.913 34.913c9.641-9.64 14.464-22.276 14.459-34.912z" fill="#d7eced"/><path d="M319.759 359.229h-18.243l-16.671-16.671v49.372c13.635 0 25.979-5.524 34.913-14.459v-18.242z" fill="#0f303f"/><circle cx="284.846" cy="324.301" r="49.372" fill="#2d5872"/><path d="M284.846 274.944v49.372l34.913-34.913c-9.641-9.636-22.277-14.459-34.913-14.459z" fill="#fff"/><path d="M249.938 289.408l34.913 34.913v-49.372c-13.639-.005-25.979 5.519-34.913 14.459z" fill="#2d5872"/><path d="M235.474 324.316h49.372l-34.913-34.913c-9.636 9.646-14.459 22.277-14.459 34.913z" fill="#fff"/><path d="M249.938 359.229l34.913-34.913h-49.372c-.005 13.635 5.525 25.979 14.459 34.913z" fill="#2d5872"/><path d="M284.846 373.688v-49.372l-34.913 34.913c9.646 9.641 22.277 14.459 34.913 14.459z" fill="#fff"/><path d="M319.759 359.229l-34.913-34.913v49.372c13.635 0 25.979-5.524 34.913-14.459z" fill="#2d5872"/><path d="M334.223 324.316h-49.372l34.913 34.913c9.636-9.641 14.459-22.277 14.459-34.913z" fill="#fff"/><path d="M319.759 289.408l-34.913 34.913h49.372c0-13.639-5.524-25.979-14.459-34.913z" fill="#2d5872"/><circle cx="284.846" cy="324.301" r="34.913" fill="#2d5872"/><circle cx="284.846" cy="324.301" r="24.689" fill="#fff"/><path d="M330.696 306.074c-7.26-18.227-25.032-31.13-45.85-31.13s-38.589 12.902-45.85 31.13h-3.523v18.243c0 13.635 5.524 25.979 14.459 34.913 8.934 8.934 21.279 14.459 34.913 14.459 27.269 0 49.372-22.103 49.372-49.372v-18.243h-3.521z" fill="#0f303f"/><path d="M268.18 340.987h-18.243v18.243c9.641 9.641 22.277 14.459 34.913 14.459v-49.372l-16.67 16.67z" fill="#d7eced"/><path d="M334.218 324.316v-18.243h-3.523c-2.499-6.267-6.257-11.884-10.936-16.584v34.826h-34.913l34.913 34.913c9.641-9.64 14.464-22.276 14.459-34.912z" fill="#d7eced"/><path d="M319.759 340.987h-18.243l-16.671-16.671v49.372c13.635 0 25.979-5.525 34.913-14.459v-18.242z" fill="#0f303f"/><circle cx="284.846" cy="306.074" r="49.372" fill="#2d5872"/><path d="M284.846 256.701v49.372l34.913-34.913c-9.641-9.641-22.277-14.459-34.913-14.459z" fill="#fff"/><path d="M249.938 271.16l34.913 34.913v-49.372c-13.639 0-25.979 5.525-34.913 14.459z" fill="#2d5872"/><path d="M235.474 306.074h49.372l-34.913-34.913c-9.636 9.64-14.459 22.276-14.459 34.913z" fill="#fff"/><path d="M249.938 340.987l34.913-34.913h-49.372c-.005 13.634 5.525 25.978 14.459 34.913z" fill="#2d5872"/><path d="M284.846 355.446v-49.372l-34.913 34.913c9.646 9.641 22.277 14.459 34.913 14.459z" fill="#fff"/><path d="M319.759 340.987l-34.913-34.913v49.372c13.635 0 25.979-5.525 34.913-14.459z" fill="#2d5872"/><path d="M334.223 306.074h-49.372l34.913 34.913c9.636-9.641 14.459-22.277 14.459-34.913z" fill="#fff"/><path d="M319.759 271.16l-34.913 34.913h49.372c0-13.634-5.524-25.978-14.459-34.913z" fill="#2d5872"/><circle cx="284.846" cy="306.074" r="34.913" fill="#2d5872"/><circle cx="284.846" cy="306.074" r="24.689" fill="#fff"/><path d="M330.696 287.831c-7.26-18.227-25.032-31.13-45.85-31.13s-38.589 12.902-45.85 31.13h-3.523v18.243c0 13.635 5.524 25.979 14.459 34.913 8.934 8.934 21.279 14.459 34.913 14.459 27.269 0 49.372-22.103 49.372-49.372v-18.243h-3.521z" fill="#0f303f"/><path d="M268.18 322.744h-18.243v18.243c9.641 9.641 22.277 14.459 34.913 14.459v-49.372l-16.67 16.67z" fill="#d7eced"/><path d="M334.218 306.074v-18.243h-3.523c-2.499-6.267-6.257-11.884-10.936-16.584v34.826h-34.913l34.913 34.913c9.641-9.64 14.464-22.276 14.459-34.912z" fill="#d7eced"/><path d="M319.759 322.744h-18.243l-16.671-16.671v49.372c13.635 0 25.979-5.525 34.913-14.459v-18.242z" fill="#0f303f"/><circle cx="284.846" cy="287.846" r="49.372" fill="#2d5872"/><path d="M284.846 238.459v49.372l34.913-34.913c-9.641-9.641-22.277-14.459-34.913-14.459z" fill="#fff"/><path d="M249.938 252.918l34.913 34.913v-49.372c-13.639 0-25.979 5.524-34.913 14.459z" fill="#2d5872"/><path d="M235.474 287.831h49.372l-34.913-34.913c-9.636 9.641-14.459 22.277-14.459 34.913z" fill="#fff"/><path d="M249.938 322.744l34.913-34.913h-49.372c-.005 13.635 5.525 25.979 14.459 34.913z" fill="#2d5872"/><path d="M284.846 337.203v-49.372l-34.913 34.913c9.646 9.641 22.277 14.459 34.913 14.459z" fill="#fff"/><path d="M319.759 322.744l-34.913-34.913v49.372c13.635 0 25.979-5.524 34.913-14.459z" fill="#2d5872"/><path d="M334.223 287.831h-49.372l34.913 34.913c9.636-9.641 14.459-22.277 14.459-34.913z" fill="#fff"/><path d="M319.759 252.918l-34.913 34.913h49.372c0-13.635-5.524-25.979-14.459-34.913z" fill="#2d5872"/><circle cx="284.846" cy="287.846" r="34.913" fill="#2d5872"/><circle cx="284.846" cy="287.846" r="24.689" fill="#fff"/><path d="M330.696 269.588c-7.26-18.227-25.032-31.13-45.85-31.13s-38.589 12.902-45.85 31.13h-3.523v18.243c0 13.635 5.524 25.979 14.459 34.913 8.934 8.934 21.279 14.459 34.913 14.459 27.269 0 49.372-22.103 49.372-49.372v-18.243h-3.521z" fill="#0f303f"/><path d="M268.18 304.502h-18.243v18.243c9.641 9.641 22.277 14.459 34.913 14.459v-49.372l-16.67 16.67z" fill="#d7eced"/><path d="M334.218 287.831v-18.243h-3.523c-2.499-6.267-6.257-11.884-10.936-16.584v34.826h-34.913l34.913 34.913c9.641-9.64 14.464-22.276 14.459-34.912z" fill="#d7eced"/><path d="M319.759 304.497h-18.243l-16.671-16.671v49.372c13.635 0 25.979-5.525 34.913-14.459v-18.242z" fill="#0f303f"/><circle cx="284.846" cy="269.588" r="49.372" fill="#2d5872"/><path d="M284.846 220.216v49.372l34.913-34.913c-9.641-9.641-22.277-14.459-34.913-14.459z" fill="#fff"/><path d="M249.938 234.675l34.913 34.913v-49.372c-13.639 0-25.979 5.525-34.913 14.459z" fill="#2d5872"/><path d="M235.474 269.588h49.372l-34.913-34.913c-9.636 9.641-14.459 22.277-14.459 34.913z" fill="#fff"/><path d="M249.938 304.502l34.913-34.913h-49.372c-.005 13.634 5.525 25.973 14.459 34.913z" fill="#2d5872"/><path d="M284.846 318.961v-49.372l-34.913 34.913c9.646 9.636 22.277 14.459 34.913 14.459z" fill="#fff"/><path d="M319.759 304.502l-34.913-34.913v49.372c13.635 0 25.979-5.525 34.913-14.459z" fill="#2d5872"/><path d="M334.223 269.588h-49.372l34.913 34.913c9.636-9.64 14.459-22.276 14.459-34.913z" fill="#fff"/><path d="M319.759 234.675l-34.913 34.913h49.372c0-13.634-5.524-25.978-14.459-34.913z" fill="#2d5872"/><circle cx="284.846" cy="269.588" r="34.913" fill="#2d5872"/><circle cx="284.846" cy="269.588" r="24.689" fill="#fff"/><path d="M214.497 353.874c-7.26-18.227-25.032-31.13-45.85-31.13s-38.589 12.902-45.85 31.13h-3.523v18.243c0 13.635 5.524 25.979 14.459 34.913 8.934 8.934 21.279 14.459 34.913 14.459 27.269 0 49.372-22.103 49.372-49.372v-18.243h-3.521z" fill="#0f303f"/><path d="M151.977 388.782h-18.243v18.243c9.641 9.641 22.277 14.459 34.913 14.459v-49.372l-16.67 16.67zm66.043-16.666v-18.243h-3.523c-2.499-6.267-6.257-11.884-10.936-16.584v34.826h-34.913l34.913 34.913c9.636-9.639 14.459-22.275 14.459-34.912z" fill="#d7eced"/><path d="M203.556 388.782h-18.243l-16.671-16.671v49.372c13.635 0 25.979-5.525 34.913-14.459v-18.242z" fill="#0f303f"/><circle cx="168.648" cy="353.894" r="49.372" fill="#2d5872"/><path d="M168.648 304.502v49.372l34.913-34.913c-9.646-9.641-22.277-14.459-34.913-14.459z" fill="#fff"/><path d="M133.734 318.961l34.913 34.913v-49.372c-13.634 0-25.978 5.524-34.913 14.459z" fill="#2d5872"/><path d="M119.276 353.874h49.372l-34.913-34.913c-9.642 9.641-14.459 22.277-14.459 34.913z" fill="#fff"/><path d="M133.734 388.782l34.913-34.913h-49.372c.001 13.639 5.525 25.979 14.459 34.913z" fill="#2d5872"/><path d="M168.648 403.246v-49.372l-34.913 34.913c9.64 9.636 22.277 14.459 34.913 14.459z" fill="#fff"/><path d="M203.556 388.782l-34.913-34.913v49.372c13.639.005 25.978-5.519 34.913-14.459z" fill="#2d5872"/><path d="M218.02 353.874h-49.372l34.913 34.913c9.636-9.646 14.459-22.277 14.459-34.913z" fill="#fff"/><path d="M203.556 318.961l-34.913 34.913h49.372c.005-13.635-5.525-25.979-14.459-34.913z" fill="#2d5872"/><circle cx="168.648" cy="353.894" r="34.913" fill="#2d5872"/><circle cx="168.648" cy="353.894" r="24.689" fill="#fff"/></svg>