<svg xmlns="http://www.w3.org/2000/svg" viewBox="0 0 512 512"><circle cx="256" cy="256" r="256" fill="#ff7f4f"/><path d="M511.998 256c0-2.782-.06-5.549-.148-8.311L359.669 95.508 152.171 416.332l95.541 95.52c2.753.088 5.513.148 8.288.148 141.384 0 255.998-114.616 255.998-256z" fill="#e03a00"/><path d="M335.155 426.667H176.843c-19.122 0-34.623-15.501-34.623-34.621v-272.09c0-19.122 15.501-34.623 34.623-34.623h158.311c19.122 0 34.623 15.501 34.623 34.623v272.089c.001 19.12-15.501 34.622-34.622 34.622z" fill="#fff"/><path d="M335.155 85.333h-79.731v341.333h79.731c19.122 0 34.621-15.501 34.621-34.621v-272.09c.002-19.12-15.5-34.622-34.621-34.622z" fill="#c9c9c9"/><path d="M215.452 262.961l31.775 31.78c4.72 4.722 12.374 4.722 17.096 0l32.359-32.359c11.169-11.169 11.169-29.279 0-40.448s-29.579-10.85-40.748.319c-11.169-11.169-29.579-11.169-40.748 0-11.169 11.169-10.905 29.539.266 40.708z" fill="#c2001b"/><path d="M296.682 221.936c-11.169-11.169-29.579-10.85-40.748.319-.164-.164-.341-.3-.509-.459v76.471a12.04 12.04 0 008.897-3.524l32.359-32.359c11.171-11.17 11.171-29.279.001-40.448z" fill="#940030"/><path d="M166.05 136.171l11.724 11.726a4.46 4.46 0 006.308 0l11.94-11.94c4.122-4.12 4.122-10.802 0-14.924s-10.914-4.003-15.034.117c-4.122-4.122-10.914-4.122-15.034 0-4.124 4.123-4.026 10.899.096 15.021z" fill="#c2001b"/><path d="M316.03 387.946l11.724 11.726a4.46 4.46 0 006.308 0l11.94-11.94c4.122-4.12 4.122-10.802 0-14.924s-10.914-4.003-15.034.117c-4.122-4.122-10.914-4.122-15.034 0-4.121 4.122-4.026 10.901.096 15.021z" fill="#940030"/></svg>